<?xml version="1.0" encoding="UTF-8" standalone="no"?>
<svg
   version="1.1"
   viewBox="180.45 159.86 391.1 432.29"
   id="svg4"
   sodipodi:docname="icon.svg"
   inkscape:version="1.2.1 (9c6d41e4, 2022-07-14)"
   xmlns:inkscape="http://www.inkscape.org/namespaces/inkscape"
   xmlns:sodipodi="http://sodipodi.sourceforge.net/DTD/sodipodi-0.dtd"
   xmlns="http://www.w3.org/2000/svg"
   xmlns:svg="http://www.w3.org/2000/svg">
  <defs
     id="defs8" />
  <sodipodi:namedview
     id="namedview6"
     pagecolor="#ffffff"
     bordercolor="#666666"
     borderopacity="1.0"
     inkscape:showpageshadow="2"
     inkscape:pageopacity="0.0"
     inkscape:pagecheckerboard="0"
     inkscape:deskcolor="#d1d1d1"
     showgrid="false"
     inkscape:zoom="1.4547211"
     inkscape:cx="-8.2490039"
     inkscape:cy="240.25224"
     inkscape:window-width="1617"
     inkscape:window-height="1067"
     inkscape:window-x="0"
     inkscape:window-y="25"
     inkscape:window-maximized="0"
     inkscape:current-layer="svg4" />
  <path
     d="m571.51 255.13c-0.007813-0.21875-0.046875-0.42578-0.09375-0.64453 0-0.003906 0-0.007813-0.007813-0.019531-0.027344-0.11719-0.007812-0.25-0.058594-0.36328-0.039062-0.11328-0.11719-0.20312-0.17578-0.3125-0.039062-0.09375-0.039062-0.19922-0.09375-0.29297-0.058593-0.097656-0.15625-0.15625-0.22266-0.24609-0.074219-0.097656-0.097656-0.22656-0.18359-0.32031-0.085937-0.09375-0.21484-0.15234-0.30469-0.23828-0.15625-0.14844-0.32031-0.28125-0.49609-0.39453-0.10938-0.066406-0.19531-0.16016-0.30469-0.21484-0.007812-0.003906-0.019531-0.015625-0.027343-0.023437l-192.68-91.883c-0.058593-0.027343-0.125-0.019531-0.17969-0.046875-0.23047-0.097656-0.47656-0.13672-0.72266-0.18359-0.21484-0.039062-0.42188-0.089843-0.63281-0.089843-0.20703 0-0.41016 0.050781-0.625 0.09375-0.25 0.046875-0.49219 0.089843-0.72266 0.1875-0.0625 0.023437-0.125 0.019531-0.18359 0.046875l-191.35 92.805c-0.007812 0.003907-0.015624 0.015625-0.023437 0.019531-0.11328 0.058594-0.19531 0.15625-0.30469 0.22266-0.18359 0.11328-0.34375 0.24609-0.50781 0.39844-0.019531 0.019532-0.046875 0.03125-0.070313 0.050782-0.066406 0.066406-0.16016 0.10547-0.22266 0.17578-0.085937 0.09375-0.11719 0.22266-0.19531 0.33203-0.066406 0.09375-0.16406 0.15234-0.22266 0.25391-0.050782 0.09375-0.050782 0.19922-0.097657 0.29297-0.046875 0.097656-0.13281 0.18359-0.17188 0.29297-0.03125 0.097656-0.019531 0.20703-0.042968 0.3125-0.003907 0.023437-0.003907 0.050781-0.007813 0.082031-0.046875 0.22266-0.089844 0.4375-0.09375 0.66016-0.003906 0.10938-0.039063 0.21484-0.03125 0.32812 0 0.007813-0.003906 0.019532-0.003906 0.027344l15 214.15c0.003906 0.082031 0.046875 0.14062 0.058593 0.22266 0.03125 0.22266 0.097657 0.42578 0.17188 0.64453 0.074218 0.22266 0.14844 0.44141 0.26562 0.64062 0.097657 0.17188 0.22656 0.31641 0.35547 0.47656 0.16406 0.19922 0.33594 0.37891 0.53906 0.53906 0.074218 0.058594 0.11328 0.13672 0.19531 0.1875l177.96 118.26c0.074218 0.050781 0.16016 0.070312 0.23828 0.10938 0.070313 0.042969 0.13672 0.074219 0.21484 0.10938 0.09375 0.046875 0.18359 0.085937 0.28516 0.11719 0.40234 0.14844 0.81641 0.25 1.2305 0.25 0.41797 0 0.82812-0.097656 1.2266-0.25 0.097656-0.039062 0.19922-0.082031 0.29297-0.125 0.082031-0.039062 0.15234-0.082031 0.22656-0.125 0.082031-0.042969 0.16406-0.0625 0.23828-0.10938l176.22-119.25c0.074219-0.050781 0.10938-0.125 0.17578-0.17969 0.20312-0.16016 0.37109-0.34766 0.53516-0.55078 0.12891-0.15625 0.26172-0.29688 0.35938-0.47656 0.10938-0.19922 0.17578-0.41016 0.25-0.63281 0.074219-0.21875 0.14844-0.42188 0.17578-0.64844 0.007813-0.074219 0.046876-0.13281 0.058594-0.20703l4.668-67.57 10.16-146.51v-0.039062c-0.003906-0.11328-0.03125-0.22656-0.039062-0.33984zm-196.16-87.805 185.04 88.246-183.45 105.71-185.3-104.86m-3.6367 6.1094 185.4 104.91v214.52l-170.99-113.63zm366.3 139-4.5508 65.844-169.25 114.53v-214.48l183.49-105.75zm-13.121 34.391c-0.066406-0.24609-0.16406-0.46094-0.28125-0.68359-0.066406-0.11719-0.074219-0.26172-0.14844-0.375-0.046875-0.070312-0.11719-0.10547-0.17578-0.17578-0.14844-0.19531-0.32031-0.35156-0.50781-0.51172-0.16406-0.14844-0.33203-0.29297-0.52734-0.40625-0.18359-0.10547-0.37891-0.17188-0.58203-0.24609-0.24219-0.085938-0.47266-0.16016-0.71875-0.19531-0.085938-0.007813-0.14844-0.058594-0.23047-0.0625-0.20312-0.027344-0.37891 0.042969-0.57422 0.050781-0.12891 0.015625-0.25 0.007813-0.37891 0.039063-0.41797 0.074219-0.78516 0.22656-1.1289 0.45312-0.027344 0.015625-0.066407 0.015625-0.09375 0.03125l-0.25 0.16406c-0.046876 0.039063-0.097657 0.058594-0.14844 0.097656l-18.418 12.082c-0.09375 0.0625-0.13672 0.14844-0.22266 0.21484-0.12891 0.10547-0.23047 0.22656-0.33984 0.34766-0.22266 0.22266-0.41797 0.44531-0.55469 0.71094-0.085938 0.14062-0.12891 0.29688-0.19531 0.45312-0.097656 0.26953-0.18359 0.52734-0.22266 0.80859-0.007813 0.085938-0.066406 0.15625-0.066406 0.24219l-1.2578 22.707c-0.007812 0.14062 0.058594 0.27344 0.066406 0.41016 0.007813 0.24219 0.039063 0.46875 0.097657 0.69922 0.066406 0.24219 0.15625 0.45312 0.26953 0.67188 0.066406 0.125 0.085938 0.26172 0.15625 0.37891 0.046875 0.0625 0.10938 0.085937 0.15625 0.13672 0.26953 0.35938 0.60156 0.65234 0.98828 0.89062 0.074219 0.046875 0.12891 0.11719 0.20312 0.16016 0.42578 0.21875 0.90625 0.35938 1.4141 0.38672 0.066406 0.003906 0.12891 0.003906 0.19531 0.003906 0.40625 0 0.80469-0.09375 1.1953-0.23047 0.11719-0.046875 0.23047-0.10938 0.35156-0.16406 0.13672-0.070313 0.28906-0.10938 0.42578-0.19922l18.656-12.438c0.074218-0.050781 0.11719-0.13281 0.19531-0.19531 0.19531-0.15625 0.35938-0.33203 0.52734-0.53125 0.12891-0.16016 0.26172-0.3125 0.35938-0.49219 0.10938-0.19531 0.18359-0.40234 0.26172-0.62109 0.074218-0.22266 0.13672-0.4375 0.16406-0.66797 0.007812-0.082032 0.058594-0.14063 0.066406-0.22656l1.4141-22.613c0.007812-0.14844-0.046875-0.27344-0.058594-0.41797-0.003906-0.22656-0.027344-0.45312-0.082031-0.6875zm-18.938 18.215 8.4531 4.8008-9.0469 6.0352zm2.0898-4.25 9.4609-6.2031-0.69922 11.172zm-172.38-256.7c0.046875 0.24609 0.09375 0.47656 0.1875 0.70703 0.027344 0.074219 0.023438 0.15234 0.058594 0.22266 0.10938 0.21875 0.26172 0.40234 0.40234 0.59375 0.046875 0.0625 0.074219 0.13281 0.12891 0.1875 0.28516 0.31641 0.61719 0.56641 0.98438 0.76172 0.03125 0.019531 0.058594 0.050781 0.09375 0.070312l20.266 10.016c0.50781 0.25 1.043 0.37109 1.5742 0.37109h0.003906c0.50391 0 0.98438-0.13672 1.4336-0.33984 0.050781-0.023438 0.10547-0.007813 0.15234-0.039063l20.098-10.102c0.03125-0.019531 0.058594-0.050781 0.085937-0.070312 0.37109-0.19922 0.69922-0.44922 0.98047-0.76562 0.058594-0.0625 0.089844-0.13281 0.13672-0.19922 0.13672-0.18359 0.28906-0.36328 0.39844-0.58594 0.039063-0.070313 0.027344-0.15234 0.058594-0.22266 0.09375-0.22656 0.13672-0.46484 0.18359-0.70703 0.039062-0.21875 0.085937-0.42578 0.085937-0.64453s-0.058593-0.42578-0.09375-0.64844c-0.058593-0.24219-0.097656-0.47656-0.19531-0.69922-0.039063-0.074219-0.027344-0.15234-0.066407-0.22266-0.066406-0.13281-0.17969-0.21484-0.26172-0.33594-0.13281-0.19922-0.26953-0.39453-0.44531-0.56641-0.17578-0.17578-0.375-0.30859-0.58203-0.44531-0.11719-0.074219-0.20312-0.1875-0.33203-0.25391l-20.254-9.8359c-0.070312-0.03125-0.14062-0.023438-0.21484-0.058594-0.22266-0.09375-0.45312-0.13281-0.69531-0.17969-0.22266-0.042968-0.4375-0.089844-0.66016-0.089844-0.20703 0-0.41016 0.046876-0.62109 0.089844-0.25 0.046875-0.49219 0.09375-0.72266 0.19531-0.070312 0.027343-0.14062 0.023437-0.20703 0.058593l-20.109 9.9258c-0.12891 0.066406-0.20703 0.17969-0.33203 0.25391-0.20312 0.13281-0.40234 0.26953-0.57812 0.44922-0.17969 0.17578-0.3125 0.37109-0.44531 0.57812-0.082031 0.11719-0.19531 0.19922-0.25391 0.33203-0.03125 0.070313-0.027344 0.14844-0.058594 0.21875-0.097656 0.23047-0.14062 0.46875-0.1875 0.71094-0.042969 0.21875-0.089844 0.42578-0.085937 0.64453 0 0.20312 0.050781 0.41406 0.089843 0.625zm25.914 4.2891-0.003906-9.75 9.8711 4.793zm-4.7383-9.7227 0.003907 9.6055-9.7266-4.8086zm172.45 177.91c-0.066406-0.24219-0.14844-0.46484-0.26172-0.6875-0.058594-0.11328-0.066406-0.23047-0.12891-0.33984-0.046875-0.085937-0.13672-0.12891-0.19531-0.20312-0.14844-0.19922-0.3125-0.37109-0.50781-0.53516-0.15625-0.14844-0.3125-0.28125-0.49609-0.39453-0.19531-0.11328-0.40625-0.19922-0.62109-0.27344-0.23047-0.085937-0.44531-0.14844-0.6875-0.18359-0.097657-0.015625-0.18359-0.066407-0.28906-0.074219-0.12891-0.003906-0.24219 0.046875-0.37109 0.050781-0.24219 0.007813-0.46484 0.039063-0.69922 0.097657-0.28125 0.066406-0.53516 0.16406-0.78516 0.29297-0.074218 0.042969-0.16406 0.042969-0.24219 0.089844l-19.285 12.02c-0.097656 0.0625-0.15625 0.16406-0.25 0.23047-0.18359 0.13672-0.33984 0.29297-0.49219 0.46484-0.14844 0.17188-0.28906 0.33594-0.40625 0.53125-0.10938 0.19531-0.19531 0.39844-0.26953 0.61719-0.085938 0.22266-0.14844 0.44141-0.17578 0.67578-0.019531 0.10547-0.074218 0.1875-0.085937 0.29297l-1.332 23.973c-0.007813 0.12891 0.046875 0.24609 0.058594 0.37109 0.007812 0.24609 0.039062 0.47656 0.097656 0.71484 0.058594 0.23047 0.14844 0.44531 0.25 0.66016 0.058594 0.11328 0.066406 0.24609 0.13672 0.35547 0.046876 0.070312 0.11719 0.09375 0.16406 0.16016 0.26953 0.35938 0.59375 0.66406 0.97266 0.89844 0.085938 0.058594 0.14844 0.13281 0.23047 0.17578 0.4375 0.22656 0.91406 0.37891 1.4336 0.40625 0.066406 0.003906 0.12891 0.003906 0.20312 0.003906 0.39844 0 0.79688-0.09375 1.1836-0.23047 0.10938-0.042968 0.22266-0.097656 0.33203-0.14844 0.11719-0.0625 0.26172-0.09375 0.37891-0.17188l19.148-12.133c0.09375-0.0625 0.13672-0.15234 0.22266-0.21875 0.20312-0.15234 0.37891-0.32031 0.54297-0.51563 0.12891-0.16016 0.25-0.3125 0.35938-0.49219 0.11719-0.20312 0.20312-0.41797 0.28125-0.64453 0.074218-0.20703 0.12891-0.41016 0.16406-0.62891 0.007812-0.097657 0.066406-0.17969 0.074219-0.28516l1.4766-23.859c0.007813-0.13281-0.046875-0.25-0.058593-0.38281 0.007812-0.22656-0.019532-0.44922-0.070313-0.67969zm-8.1719 20.254-10.555-5.6719 11.348-7.0664zm-11.336-0.72656 8.7422 4.6992-9.3359 5.9141zm2.5664-128.57c0.09375-0.22656 0.13672-0.45312 0.18359-0.69141 0.027344-0.22266 0.058594-0.4375 0.046876-0.66406 0-0.22266-0.046876-0.4375-0.09375-0.66016-0.058594-0.23828-0.11719-0.46094-0.22266-0.68359-0.039062-0.097656-0.039062-0.20312-0.09375-0.29688-0.066406-0.10547-0.16406-0.17188-0.23047-0.26953-0.13672-0.19922-0.29297-0.37109-0.47266-0.53516-0.17969-0.16406-0.35938-0.30469-0.5625-0.42969-0.097656-0.0625-0.16406-0.16016-0.28125-0.21484l-22.613-10.977c-0.09375-0.042969-0.18359-0.039063-0.28125-0.070313-0.23047-0.089844-0.46484-0.14062-0.71094-0.18359-0.22266-0.039062-0.4375-0.066406-0.66016-0.058593-0.22266 0.003906-0.42578 0.042969-0.64062 0.089843-0.25 0.050782-0.48438 0.11719-0.71094 0.22266-0.09375 0.042969-0.18359 0.039062-0.28125 0.089843l-20.02 11.078c-0.10938 0.0625-0.17578 0.16016-0.28125 0.23047-0.19531 0.13281-0.37109 0.28516-0.53516 0.45312-0.16406 0.17969-0.3125 0.36328-0.4375 0.57422-0.066406 0.097656-0.16406 0.16406-0.21484 0.27344-0.046876 0.09375-0.046876 0.19922-0.085938 0.29297-0.09375 0.23047-0.14844 0.46484-0.18359 0.71094-0.039062 0.21875-0.066406 0.42969-0.058594 0.64844 0 0.22266 0.039063 0.4375 0.085938 0.66016 0.058594 0.24219 0.11719 0.46484 0.22266 0.6875 0.039063 0.097656 0.039063 0.19922 0.09375 0.29297 0.039063 0.082032 0.12891 0.10938 0.17578 0.18359 0.25 0.37891 0.5625 0.69141 0.94141 0.96094 0.10938 0.074218 0.19531 0.17578 0.30469 0.23047 0.046875 0.023438 0.066407 0.0625 0.10938 0.085938l22.633 11.188c0.49609 0.25 1.0391 0.37109 1.5625 0.37109h0.007812 0.007813c0.57422-0.003907 1.1367-0.16406 1.6367-0.42969 0.027344-0.015625 0.066407-0.003906 0.09375-0.023438l20.008-11.289c0.007813-0.007812 0.019531-0.023438 0.039063-0.03125 0.35937-0.20703 0.66797-0.48438 0.94141-0.80859 0.074218-0.089844 0.11719-0.18359 0.18359-0.28516 0.09375-0.13672 0.21484-0.26172 0.28906-0.41016 0.082031-0.10938 0.070312-0.21484 0.10547-0.3125zm-23.379 6.0234-0.94141-0.46484 0.58203-12.797 12.828 6.2227zm-5.125-12.738-0.45312 9.9844-9.2852-4.5898zm50.094 41.539c-0.058593-0.24219-0.12891-0.46484-0.24219-0.68359-0.046875-0.097657-0.046875-0.21484-0.097656-0.3125-0.066407-0.097657-0.15625-0.15625-0.22266-0.24609-0.14844-0.19922-0.29297-0.37109-0.48437-0.53516-0.16406-0.15625-0.33984-0.29297-0.53516-0.41016-0.17578-0.11328-0.37109-0.19922-0.57422-0.28125-0.24219-0.089843-0.47266-0.15625-0.73047-0.19531-0.097656-0.015625-0.19531-0.074219-0.29297-0.082031-0.11719-0.007813-0.22266 0.039062-0.33203 0.042969-0.22266 0.003906-0.44531 0.03125-0.66797 0.085937-0.28125 0.0625-0.51562 0.14844-0.76562 0.26562-0.085938 0.042969-0.17578 0.042969-0.26172 0.089844l-19.805 11.645c-0.097656 0.058594-0.15625 0.15625-0.25 0.21875-0.20312 0.15234-0.38672 0.3125-0.5625 0.50391-0.13672 0.16016-0.26953 0.32031-0.37891 0.50391-0.11719 0.19922-0.21484 0.39844-0.29297 0.62109-0.085938 0.22266-0.13672 0.44531-0.17578 0.68359-0.019532 0.11719-0.085938 0.21875-0.085938 0.33594l-1.4062 25.348c-0.007812 0.11328 0.039062 0.21484 0.046875 0.32812 0.007813 0.24219 0.046875 0.47266 0.097656 0.71484 0.058594 0.23047 0.12891 0.44531 0.23047 0.66016 0.058594 0.10547 0.058594 0.21875 0.11719 0.32031 0.046874 0.074219 0.12891 0.10547 0.18359 0.17969 0.26172 0.375 0.57422 0.68359 0.96094 0.92969 0.085937 0.058594 0.15625 0.14062 0.25 0.1875 0.4375 0.23047 0.92188 0.39453 1.4531 0.42188 0.066406 0 0.12891 0.003906 0.20312 0.003906 0.38672 0 0.78516-0.09375 1.1641-0.22656 0.11719-0.039062 0.22266-0.085938 0.32031-0.13672 0.10938-0.050781 0.22266-0.082031 0.33203-0.14062l19.633-11.777c0.097656-0.0625 0.15625-0.16016 0.25-0.23047 0.20312-0.15234 0.38672-0.3125 0.5625-0.50781 0.13672-0.16016 0.25-0.31641 0.35937-0.49219 0.11719-0.19922 0.21484-0.40234 0.29297-0.62891 0.074219-0.20703 0.12891-0.41797 0.16406-0.64063 0.019531-0.10937 0.074218-0.20312 0.085937-0.31641l1.5742-25.215c0.007812-0.11719-0.039062-0.22266-0.046875-0.33984 0.015625-0.23828-0.011719-0.46484-0.070313-0.69141zm-8.2695 21.699-11.566-5.8711 0.066406-1.2852 12.414-7.2969zm-11.855-0.70703 9.0078 4.5664-9.582 5.7461zm-116.31-89.258c0 0.21875 0.046876 0.42578 0.085938 0.64453 0.058594 0.24609 0.10938 0.47266 0.20312 0.69922 0.039063 0.085937 0.039063 0.17578 0.074219 0.25391 0.046875 0.085937 0.13672 0.11328 0.18359 0.19531 0.24219 0.39453 0.55469 0.73047 0.95312 1.0078 0.10938 0.074219 0.19531 0.17578 0.3125 0.24219 0.046876 0.023438 0.074219 0.074219 0.12891 0.097656l21.406 10.574c0.49609 0.25 1.0391 0.37109 1.5625 0.37109h0.007812 0.007813c0.53516-0.003906 1.0469-0.15234 1.5156-0.37891 0.046875-0.019531 0.09375-0.007813 0.13672-0.03125l20.07-10.676c0.027344-0.015626 0.039062-0.042969 0.066406-0.058594 0.35938-0.19922 0.6875-0.46484 0.95312-0.78125 0.074219-0.082032 0.10938-0.17188 0.17578-0.25391 0.10938-0.16016 0.24219-0.30469 0.33203-0.48828 0.039062-0.085937 0.027344-0.17578 0.066406-0.26562 0.09375-0.22656 0.13672-0.45312 0.17578-0.69531 0.046875-0.22266 0.074219-0.4375 0.074219-0.66016 0-0.21875-0.046875-0.42578-0.09375-0.64453-0.058594-0.24219-0.10938-0.46875-0.20312-0.69531-0.039063-0.085938-0.039063-0.17578-0.085937-0.26172-0.066407-0.11719-0.17578-0.19531-0.25-0.30469-0.12891-0.19922-0.28125-0.38281-0.45313-0.55078-0.17578-0.17578-0.37109-0.3125-0.57422-0.44531-0.10938-0.070313-0.18359-0.17578-0.30469-0.23047l-21.387-10.383c-0.085938-0.039063-0.17578-0.03125-0.26172-0.066407-0.22266-0.089843-0.44531-0.13281-0.6875-0.17969-0.22266-0.039063-0.44531-0.082032-0.67578-0.074219-0.20313 0.003906-0.40625 0.046875-0.60938 0.089844-0.26172 0.050781-0.49609 0.10547-0.73047 0.20703-0.074219 0.03125-0.15625 0.027344-0.23047 0.066406l-20.09 10.477c-0.10938 0.0625-0.18359 0.17188-0.29297 0.24219-0.20312 0.13672-0.39844 0.28516-0.57422 0.46484-0.16406 0.17578-0.29297 0.35547-0.42578 0.55469-0.074218 0.11328-0.18359 0.19531-0.25 0.32031-0.039062 0.085938-0.039062 0.17969-0.066406 0.26562-0.09375 0.22266-0.13672 0.44531-0.18359 0.6875-0.03125 0.22656-0.0625 0.44531-0.0625 0.66406zm25.602 6.1484 0.25-11.621 11.293 5.4805zm-4.4844-11.367-0.21484 9.8086-9.5469-4.7188zm-126.28 38.551c0.046875 0.24219 0.10547 0.46875 0.19922 0.69531 0.039062 0.097657 0.03125 0.19922 0.085937 0.29297 0.039063 0.082031 0.125 0.10938 0.17188 0.17969 0.25 0.42187 0.58203 0.78125 1.0039 1.0742 0.085937 0.0625 0.14062 0.14062 0.23828 0.19531 0.03125 0.019531 0.050781 0.050781 0.085937 0.070312l64.285 34.25c0.53125 0.28516 1.1016 0.41797 1.668 0.41797 0.57422 0 1.1562-0.13672 1.6914-0.42969l39.387-21.359 24.336-13.199c0.027344-0.015625 0.046875-0.046875 0.074218-0.0625 0.085938-0.050781 0.13672-0.13281 0.22266-0.1875 0.42578-0.29297 0.75781-0.66406 1.0078-1.0859 0.046875-0.074219 0.12891-0.10547 0.17578-0.18359 0.046876-0.097657 0.039063-0.19922 0.085938-0.29688 0.085938-0.22266 0.13672-0.44922 0.18359-0.6875 0.039062-0.22656 0.066406-0.44531 0.066406-0.67187 0-0.21875-0.039062-0.42578-0.085938-0.64453-0.046874-0.24609-0.10937-0.47266-0.21484-0.69922-0.046875-0.09375-0.039063-0.19922-0.09375-0.28906-0.058594-0.10547-0.15625-0.17188-0.22266-0.26953-0.13672-0.19922-0.28906-0.38281-0.46484-0.55469-0.17578-0.16406-0.35156-0.30859-0.55469-0.4375-0.097656-0.066406-0.17578-0.16406-0.28906-0.22266l-64.246-32.336c-0.039063-0.019531-0.074219-0.015624-0.11328-0.027343-0.085938-0.042969-0.17188-0.070313-0.26172-0.097657-0.1875-0.070312-0.37891-0.089843-0.57422-0.12891-0.18359-0.03125-0.36328-0.09375-0.55078-0.097656-0.039063 0-0.070313-0.019531-0.10547-0.019531-0.042968 0-0.082031 0.023437-0.12891 0.023437-0.17578 0.003906-0.33984 0.0625-0.51953 0.09375-0.20312 0.039063-0.40234 0.0625-0.59766 0.13281-0.085937 0.03125-0.16406 0.066406-0.25 0.10547-0.039062 0.015624-0.082031 0.015624-0.11719 0.03125l-63.754 32.645c-0.10938 0.058593-0.17578 0.15625-0.27344 0.21875-0.20312 0.12891-0.38672 0.27344-0.55859 0.44531-0.17578 0.17578-0.32031 0.35156-0.45313 0.55469-0.066406 0.097656-0.17187 0.16406-0.22656 0.27344-0.050781 0.09375-0.046875 0.19922-0.089844 0.29297-0.097656 0.22656-0.15625 0.44922-0.20312 0.69141-0.042969 0.22266-0.082031 0.42969-0.082031 0.65234-0.007812 0.21875 0.023438 0.42969 0.0625 0.65234zm106.94 8.3164-17.285-8.8906c-0.03125-0.019531-0.074219-0.015625-0.10938-0.03125-0.21484-0.097656-0.44531-0.13281-0.67578-0.19531-0.23047-0.058594-0.46094-0.13672-0.69141-0.14063-0.039062 0-0.074219-0.023437-0.11328-0.023437h-0.023438c-0.17969 0-0.33203 0.074219-0.50391 0.097656-0.24609 0.03125-0.48828 0.058594-0.71484 0.14062-0.22266 0.082032-0.40625 0.20703-0.60156 0.33203-0.19531 0.11328-0.38281 0.21484-0.55469 0.37109-0.18359 0.17188-0.32031 0.38281-0.47266 0.59375-0.097656 0.13672-0.23047 0.23047-0.3125 0.38672-0.019531 0.039062-0.007812 0.082031-0.027344 0.11328-0.097656 0.21484-0.13672 0.44922-0.19531 0.6875-0.058594 0.22656-0.13672 0.44922-0.14844 0.68359 0 0.042969-0.019531 0.074219-0.019531 0.11328l-0.12891 18-13.582 7.3672-0.027344-55.434 53.031 26.691zm-15.398 0.070313 7.832 4.0312-7.8906 4.2812zm-27.875 19.043-13.43-7.1562-0.13672-17.617c0-0.046875-0.023437-0.085938-0.023437-0.12891-0.007813-0.21484-0.082031-0.41797-0.12891-0.62891-0.0625-0.26562-0.10547-0.51953-0.21875-0.75781-0.015624-0.03125-0.015624-0.070313-0.027343-0.097656-0.0625-0.11328-0.16016-0.17969-0.23047-0.28516-0.17188-0.26172-0.34766-0.50781-0.57812-0.71094-0.14062-0.125-0.29688-0.20312-0.45312-0.29688-0.21875-0.14062-0.42578-0.28125-0.68359-0.37109-0.24219-0.085937-0.48828-0.10938-0.73828-0.14062-0.17188-0.023438-0.31641-0.097656-0.49219-0.097656-0.046876 0-0.085938 0.023437-0.12891 0.027344-0.23828 0.007812-0.46094 0.089843-0.69141 0.14844s-0.46484 0.09375-0.67188 0.19531c-0.039062 0.019531-0.085938 0.015624-0.125 0.039062l-16.945 8.8672-16.84-8.9727 52.535-26.898zm-20.629-18.898 0.0625 7.9414-7.5547-4.0273zm-62.266-41c0.042969 0.24219 0.09375 0.46875 0.18359 0.69531 0.03125 0.085938 0.027344 0.17969 0.070313 0.26172 0.09375 0.1875 0.22266 0.33594 0.33984 0.49609 0.058594 0.082031 0.097657 0.16016 0.16016 0.23828 0.28125 0.32031 0.60547 0.58594 0.97266 0.78516 0.023437 0.015625 0.039062 0.042969 0.066406 0.058594l20.25 10.586c0.52734 0.27344 1.0859 0.40234 1.6445 0.40234 0.53516 0 1.0859-0.11719 1.5898-0.37891l21.238-10.68c0.046875-0.023437 0.074219-0.070312 0.125-0.097656 0.11328-0.0625 0.19922-0.16016 0.30469-0.23828 0.39844-0.28516 0.71484-0.62109 0.95703-1.0234 0.046875-0.082032 0.13672-0.11328 0.18359-0.19922 0.046875-0.085938 0.039062-0.17578 0.074219-0.26172 0.09375-0.22266 0.14844-0.44922 0.19531-0.69141 0.042969-0.22266 0.085938-0.4375 0.085938-0.66406 0-0.21875-0.039063-0.42188-0.074219-0.64062-0.046875-0.24609-0.097657-0.47656-0.19531-0.71094-0.03125-0.085938-0.027344-0.17578-0.070312-0.25391-0.0625-0.11719-0.16406-0.19531-0.23828-0.29687-0.13281-0.20703-0.27344-0.39844-0.45312-0.57813-0.17188-0.17187-0.35547-0.30859-0.55469-0.44141-0.11328-0.074218-0.1875-0.18359-0.30859-0.24609l-20.254-10.387c-0.082031-0.039063-0.16406-0.03125-0.24219-0.070313-0.22656-0.097656-0.46094-0.14844-0.69922-0.19922-0.22266-0.042968-0.42969-0.085937-0.65234-0.089843-0.21484 0-0.42188 0.039062-0.64062 0.074219-0.24609 0.046874-0.48438 0.09375-0.71484 0.1875-0.082031 0.03125-0.16406 0.023437-0.24219 0.066406l-21.234 10.48c-0.125 0.0625-0.19922 0.16406-0.30859 0.23828-0.20312 0.12891-0.38672 0.26562-0.5625 0.4375-0.17969 0.17578-0.32031 0.36328-0.46094 0.56641-0.074219 0.10547-0.17969 0.17969-0.24219 0.29297-0.042969 0.082031-0.039062 0.17188-0.074219 0.25-0.097656 0.22656-0.15625 0.46484-0.20312 0.70703-0.042968 0.21875-0.085937 0.42188-0.089844 0.64062-0.003906 0.25 0.035157 0.46094 0.074219 0.68359zm37.086-0.74219-9.6992 4.8789-0.22266-9.9648zm-14.664-5.2812 0.25391 11.457-11.398-5.957zm195.97 147.36c-0.066406-0.24219-0.13672-0.46094-0.25-0.68359-0.046874-0.097657-0.058593-0.21484-0.10937-0.3125-0.066407-0.09375-0.15625-0.14844-0.22266-0.23047-0.14844-0.19922-0.30469-0.37109-0.49219-0.53516-0.17578-0.14844-0.33984-0.28125-0.52734-0.39453-0.19531-0.11328-0.38672-0.19922-0.60156-0.27344-0.23047-0.085937-0.46484-0.14062-0.71094-0.17969-0.097656-0.015626-0.19531-0.074219-0.30469-0.082032-0.10937 0-0.20312 0.042969-0.30469 0.050782-0.28125 0.007812-0.54297 0.058593-0.81641 0.13672-0.17578 0.046875-0.33203 0.10547-0.49219 0.17969-0.13672 0.0625-0.28906 0.070312-0.41797 0.15234l-61.844 37.84c-0.14844 0.089844-0.23047 0.22266-0.35156 0.32031-0.12891 0.10547-0.25 0.21875-0.37109 0.33594-0.19531 0.21484-0.35156 0.42969-0.49219 0.68359-0.09375 0.16016-0.16406 0.32812-0.23047 0.50781-0.085938 0.24609-0.13672 0.48828-0.17578 0.74219-0.019531 0.11719-0.074219 0.22266-0.085938 0.34766l-1.8438 73.277c0 0.11719 0.058594 0.22266 0.066407 0.33984 0.019531 0.23047 0.058593 0.45312 0.11719 0.6875 0.066406 0.24219 0.14844 0.46484 0.26953 0.68359 0.046875 0.097657 0.058594 0.20703 0.11719 0.30469 0.046875 0.074219 0.12891 0.097656 0.18359 0.17188 0.25 0.33594 0.55469 0.61719 0.91406 0.84766 0.10938 0.070313 0.19531 0.16016 0.30469 0.21875 0.45312 0.22656 0.94141 0.37891 1.4883 0.39453h0.085937 0.007813c0.39844 0 0.80469-0.097656 1.1953-0.23828 0.12891-0.046875 0.24219-0.10547 0.35938-0.16406 0.11719-0.0625 0.25-0.09375 0.35938-0.16406l60.207-38.848c0.085938-0.058594 0.12891-0.14844 0.21484-0.20703 0.20312-0.16016 0.37891-0.33203 0.54297-0.53516 0.10938-0.13281 0.23047-0.25391 0.32031-0.40234 0.019531-0.03125 0.058593-0.046875 0.085937-0.085938 0.019531-0.042969 0.019531-0.089843 0.039063-0.12891 0.085937-0.16016 0.12891-0.33594 0.18359-0.50781 0.066407-0.17969 0.12891-0.35156 0.15625-0.53516 0.019531-0.097656 0.039063-0.19531 0.046875-0.29297 0.007813-0.042969 0.027344-0.074219 0.027344-0.11328l3.4844-72.266c0-0.11719-0.046875-0.21875-0.058594-0.33594 0.019531-0.24609-0.015625-0.46875-0.074219-0.70703zm-62.441 69.223 7.2031 4.1562-7.4258 4.7031zm-0.44531 17.41 16.418-10.387c0.46484-0.29297 0.81641-0.69531 1.0898-1.1406 0.019532-0.039062 0.066406-0.046875 0.085938-0.085937 0.085937-0.14062 0.09375-0.30469 0.14844-0.46094 0.097657-0.23828 0.20312-0.46875 0.24219-0.71875 0.046875-0.22266 0.027343-0.4375 0.027343-0.66016-0.007812-0.23047 0-0.46094-0.058593-0.69141-0.046875-0.24219-0.15625-0.45312-0.26172-0.68359-0.066406-0.15234-0.085938-0.32031-0.17578-0.47266-0.027344-0.042969-0.074219-0.066406-0.097657-0.10547-0.12891-0.18359-0.30469-0.32031-0.46484-0.48828-0.18359-0.17578-0.35156-0.35938-0.5625-0.49219-0.039063-0.023437-0.058594-0.066406-0.097657-0.089844l-15.641-9.0273 0.37891-15.105 48.137 27.297-49.633 32.023zm52.742-19.445-49.23-27.914 13.344-8.168 16.566 9.2266c0.027343 0.019531 0.066406 0.007812 0.097656 0.027344 0.45312 0.23828 0.94141 0.39844 1.4883 0.41797 0.039063 0.003906 0.085938 0.003906 0.12891 0.003906h0.007813c0.58203 0 1.1094-0.17578 1.5898-0.42578 0.13672-0.070312 0.24219-0.15625 0.37109-0.24219 0.37891-0.26172 0.69922-0.58203 0.95313-0.96484 0.058593-0.082031 0.13672-0.10547 0.18359-0.1875 0.027344-0.042969 0.019531-0.089844 0.046875-0.12891 0.10938-0.21875 0.15625-0.45312 0.22266-0.69141 0.058594-0.21875 0.13672-0.42969 0.14844-0.65234 0.007812-0.042969 0.027344-0.074219 0.027344-0.11328l0.79688-20.109 16.129-9.8711zm-20.906-35.867-8.0195-4.4609 8.3984-5.1367zm-9.0664-106.86c0-0.22266-0.027344-0.4375-0.074219-0.66016-0.058594-0.24219-0.11719-0.46484-0.22266-0.69141-0.046875-0.10547-0.046875-0.22266-0.10938-0.32813-0.058594-0.09375-0.13672-0.14844-0.20312-0.23828-0.13672-0.19922-0.28906-0.37109-0.46484-0.53906-0.17578-0.16406-0.35156-0.3125-0.55469-0.44141-0.09375-0.058593-0.14844-0.14844-0.25-0.19922l-22.68-11.637c-0.097656-0.050781-0.21484-0.046875-0.3125-0.089844-0.23047-0.09375-0.46484-0.15625-0.71094-0.19922-0.22266-0.039062-0.42578-0.0625-0.64062-0.058593-0.23047 0-0.44531 0.03125-0.67578 0.082031-0.24219 0.050781-0.46484 0.11719-0.6875 0.21875-0.097657 0.042969-0.21484 0.042969-0.3125 0.097656l-21.227 11.738c-0.09375 0.050781-0.14844 0.14844-0.24219 0.20312-0.19531 0.13281-0.37109 0.28906-0.53516 0.46094-0.17578 0.17578-0.32031 0.35156-0.45312 0.55078-0.058594 0.089844-0.14844 0.14844-0.19531 0.24609-0.058594 0.10938-0.058594 0.22656-0.097656 0.33594-0.09375 0.22266-0.14844 0.44531-0.19531 0.68359-0.046875 0.22656-0.066406 0.44531-0.066406 0.67578 0.007812 0.21875 0.039062 0.42578 0.074219 0.64844 0.058593 0.24219 0.11719 0.46875 0.22266 0.69531 0.046875 0.10547 0.046875 0.22266 0.097656 0.32812 0.046875 0.074219 0.11719 0.097657 0.16406 0.17188 0.26172 0.39844 0.58203 0.73828 1 1.0117 0.085938 0.058594 0.13672 0.13672 0.23047 0.1875 0.027344 0.015625 0.039063 0.042969 0.066407 0.058594l22.699 11.863c0.52734 0.27344 1.0898 0.40234 1.6484 0.40234h0.007812c0.59375 0 1.1836-0.14844 1.7383-0.46094l21.211-11.973c0.019531-0.007812 0.027344-0.027343 0.046875-0.039062 0.046875-0.027344 0.074219-0.074219 0.11719-0.10547 0.47266-0.30859 0.82422-0.70703 1.0898-1.1641 0.039063-0.066407 0.10938-0.09375 0.14844-0.16016 0.058593-0.10547 0.058593-0.21875 0.09375-0.32031 0.09375-0.23047 0.15625-0.46484 0.20312-0.71094 0.042968-0.21094 0.0625-0.42188 0.050781-0.64453zm-28.672-6.1211-0.28906 11.93-10.945-5.7227zm4.4023 13.836 0.33984-14.133 12.938 6.6367zm17.613 69.289c0.066406 0.23828 0.12891 0.45312 0.24219 0.66797 0.046876 0.089844 0.046876 0.19531 0.097657 0.28516 0.046875 0.085938 0.13672 0.11328 0.19531 0.1875 0.25 0.35547 0.55469 0.64844 0.92188 0.89062 0.10938 0.070313 0.19531 0.16406 0.30469 0.22266 0.46484 0.23828 0.95312 0.39844 1.4961 0.41797h0.11719 0.007813c0.39844 0 0.79687-0.09375 1.1836-0.23828 0.10938-0.039062 0.21484-0.085938 0.32031-0.13672 0.097656-0.046875 0.21484-0.074219 0.3125-0.13281l20.805-12.484c0.10938-0.066406 0.16406-0.17578 0.26953-0.24609 0.20313-0.15234 0.37891-0.30859 0.54297-0.49609 0.14844-0.16406 0.26953-0.33984 0.37891-0.52734 0.10937-0.19531 0.20312-0.38672 0.28125-0.60156 0.085937-0.22656 0.12891-0.44922 0.16406-0.69141 0.019531-0.11328 0.074219-0.21484 0.085938-0.33594l1.0469-25.609c0.007813-0.097656-0.039062-0.1875-0.046874-0.28906-0.007813-0.24219-0.046876-0.47266-0.10938-0.71094-0.058593-0.23047-0.12891-0.45312-0.23047-0.66797-0.039063-0.09375-0.046875-0.19531-0.09375-0.28516-0.066406-0.10938-0.17578-0.17578-0.25-0.27344-0.13672-0.19922-0.29297-0.375-0.48438-0.53516-0.16406-0.15234-0.33984-0.28516-0.53516-0.39844-0.18359-0.11328-0.37891-0.20312-0.59375-0.28516-0.23047-0.085938-0.46484-0.13672-0.71094-0.17578-0.11719-0.019532-0.22266-0.082032-0.35156-0.085938-0.097656-0.003906-0.19531 0.042969-0.29297 0.046875-0.22266 0.007813-0.44531 0.046875-0.66797 0.097656-0.20312 0.058594-0.39844 0.11328-0.60156 0.20703-0.11719 0.058594-0.26172 0.0625-0.37891 0.13281l-20.984 12.371c-0.10938 0.066406-0.17578 0.17969-0.28906 0.25391-0.20312 0.15234-0.38672 0.30859-0.55469 0.50391-0.14844 0.16016-0.26172 0.33203-0.35938 0.51172-0.12891 0.19922-0.22266 0.40234-0.30469 0.62891-0.074219 0.21484-0.11719 0.42969-0.15625 0.66016-0.019531 0.13281-0.085938 0.24609-0.085938 0.38672l-0.86328 25.742c0 0.10547 0.046875 0.19531 0.058594 0.29297 0.011718 0.23828 0.054687 0.46484 0.11328 0.69922zm7.5664-19.57 10.609 5.6797-11.016 6.6094zm13.254 1.7188-12.82-6.8633 13.422-7.8945zm1.8086 124.61c-0.066406-0.23828-0.15625-0.45312-0.26953-0.67187-0.058594-0.10938-0.066406-0.23828-0.13672-0.33984-0.058593-0.085938-0.13672-0.125-0.19531-0.19922-0.14844-0.19531-0.32031-0.35547-0.50781-0.51562-0.17578-0.14062-0.33984-0.28516-0.53516-0.38672-0.18359-0.10938-0.38672-0.17969-0.60156-0.25391-0.23047-0.082031-0.46484-0.14062-0.71094-0.17578-0.09375-0.007813-0.17578-0.0625-0.26953-0.066406-0.15625-0.019532-0.3125 0.046874-0.47266 0.058593-0.15625 0.015625-0.30469 0.023438-0.46484 0.0625-0.3125 0.070313-0.60156 0.1875-0.89062 0.35547-0.085938 0.046875-0.18359 0.050781-0.26953 0.10547l-19.887 13.043c-0.12891 0.082031-0.19531 0.20703-0.30469 0.29687-0.13672 0.10547-0.25 0.22656-0.35938 0.35547-0.17578 0.19922-0.33984 0.39844-0.46484 0.62891-0.097657 0.17969-0.17578 0.37109-0.24219 0.57422-0.085938 0.23047-0.13672 0.46094-0.16406 0.69531-0.019532 0.097656-0.066407 0.1875-0.074219 0.29297l-0.75 22.992c-0.007813 0.13281 0.058593 0.25 0.066406 0.37891 0.019531 0.23828 0.046875 0.46484 0.10938 0.69141 0.074219 0.23828 0.16406 0.45312 0.28125 0.66797 0.058594 0.11328 0.066406 0.24219 0.13672 0.34766 0.046875 0.070313 0.12891 0.09375 0.17578 0.15625 0.26172 0.33594 0.57422 0.61719 0.93359 0.84375 0.097656 0.0625 0.16406 0.14063 0.26953 0.19531 0.44531 0.22266 0.93359 0.37109 1.4648 0.38672h0.11719c0.40625 0 0.81641-0.097656 1.2031-0.23828 0.12891-0.050781 0.24219-0.10937 0.35938-0.17187 0.13672-0.066407 0.28125-0.10547 0.40625-0.1875l19.699-13.137c0.09375-0.058594 0.12891-0.14844 0.21484-0.21484 0.19531-0.15234 0.35938-0.32812 0.51562-0.51953 0.13672-0.16406 0.26953-0.32812 0.37109-0.51172 0.10937-0.19922 0.18359-0.40234 0.25-0.62109 0.074218-0.22656 0.13672-0.44531 0.16406-0.68359 0.007812-0.09375 0.058594-0.16406 0.066406-0.26563l0.93359-22.898c0-0.12891-0.058594-0.23828-0.058594-0.35938-0.003906-0.23828-0.042968-0.46875-0.10938-0.71094zm-19.809 17.332 9.9453 5.9453-10.367 6.9102zm3.3125-3.543 9.2969-6.0938-0.46484 11.371zm-203.04-133.19c0.003907 0.12891 0.070313 0.23828 0.089844 0.36328 0.03125 0.22656 0.082031 0.44531 0.16016 0.66406 0.082031 0.22266 0.17578 0.42188 0.29297 0.62109 0.10938 0.18359 0.22656 0.35156 0.37109 0.51172 0.17188 0.19531 0.35156 0.34766 0.55469 0.49609 0.10547 0.074219 0.17188 0.18359 0.28516 0.25l21.008 12.383c0.058594 0.03125 0.125 0.019531 0.18359 0.050781 0.49219 0.25391 1.0273 0.44141 1.6211 0.44141h0.11719c0.55078-0.019531 1.0508-0.18359 1.5078-0.42188 0.11719-0.0625 0.20312-0.15625 0.31641-0.23047 0.36328-0.24609 0.67188-0.54297 0.92188-0.90625 0.050781-0.074219 0.14844-0.10547 0.19531-0.1875 0.050781-0.085937 0.050781-0.17969 0.09375-0.26953 0.10547-0.21484 0.17578-0.4375 0.23047-0.67578 0.0625-0.23047 0.10547-0.46094 0.11719-0.69531 0.003906-0.097656 0.050781-0.18359 0.046874-0.28516l-0.86328-25.754c-0.003906-0.13281-0.070312-0.24609-0.089843-0.375-0.03125-0.25-0.085938-0.48438-0.17188-0.71875-0.082031-0.22266-0.18359-0.42188-0.30469-0.62109-0.10547-0.17188-0.20703-0.32812-0.33984-0.47656-0.21484-0.25-0.44922-0.44922-0.71875-0.63281-0.058593-0.039063-0.089843-0.097657-0.14844-0.13281l-21.199-12.242c-0.066406-0.039063-0.13672-0.03125-0.19922-0.070313-0.27344-0.13672-0.55078-0.22266-0.85156-0.28906-0.1875-0.039063-0.37109-0.066406-0.55859-0.074219-0.10547 0-0.20312-0.050781-0.3125-0.042969-0.12891 0.003906-0.23828 0.070313-0.36328 0.089844-0.24609 0.03125-0.47266 0.085938-0.70703 0.17188-0.21484 0.082031-0.40234 0.17578-0.59766 0.29297-0.19531 0.11719-0.37109 0.24219-0.53516 0.39453-0.18359 0.16406-0.33594 0.34766-0.48438 0.55078-0.074219 0.097656-0.17969 0.16406-0.24609 0.28125-0.046875 0.085938-0.046875 0.17969-0.089844 0.26562-0.10547 0.21875-0.17187 0.44531-0.23047 0.6875-0.058594 0.23047-0.097656 0.45312-0.10938 0.69141-0.003907 0.097656-0.050781 0.18359-0.046875 0.28516zm20.785 5.8945-11.23-6.6172 10.812-5.8906zm-13.871-10.57-0.60547-14.777 13.465 7.7773zm64.844-59.922c-0.046875-0.24609-0.11328-0.47266-0.20703-0.69922-0.042968-0.10938-0.042968-0.22266-0.097656-0.32812-0.050781-0.09375-0.13672-0.15234-0.19922-0.23828-0.13281-0.20703-0.28906-0.38672-0.46484-0.5625-0.16406-0.16406-0.33203-0.3125-0.52734-0.44141-0.09375-0.0625-0.15234-0.15625-0.25-0.20703l-21.422-11.641c-0.10547-0.058594-0.22266-0.058594-0.33203-0.097656-0.21875-0.089844-0.42969-0.15625-0.66406-0.19922-0.23828-0.046875-0.46094-0.082031-0.69141-0.082031-0.21484 0-0.41797 0.023437-0.62891 0.0625-0.24609 0.042969-0.47656 0.10938-0.71094 0.20312-0.10547 0.042968-0.21484 0.039062-0.3125 0.089844l-22.516 11.746c-0.097656 0.050781-0.15625 0.14062-0.25 0.19922-0.19922 0.12891-0.37109 0.27344-0.53906 0.44141-0.17969 0.17578-0.33594 0.35156-0.46875 0.55078-0.0625 0.089843-0.14844 0.14062-0.19922 0.23828-0.058594 0.10547-0.058594 0.21875-0.10547 0.32812-0.097656 0.22656-0.17188 0.44922-0.21875 0.69141-0.046875 0.22266-0.070312 0.4375-0.074218 0.66016-0.003907 0.22266 0.015624 0.4375 0.058593 0.66406 0.042969 0.24219 0.10547 0.46484 0.19922 0.69141 0.042969 0.10938 0.042969 0.22656 0.097656 0.33594 0.039063 0.074219 0.11719 0.097657 0.16016 0.17188 0.26172 0.42969 0.60156 0.80469 1.043 1.0977 0.066407 0.046875 0.10938 0.11328 0.17969 0.15625 0.019531 0.007812 0.027343 0.027344 0.046875 0.039062l21.41 11.871c0.54297 0.30469 1.1367 0.44531 1.7188 0.44531 0.5625 0 1.1328-0.13281 1.668-0.41797l22.523-11.977c0.023438-0.015625 0.039063-0.039062 0.0625-0.050781 0.085938-0.046875 0.14062-0.12891 0.21875-0.18359 0.41797-0.28125 0.75-0.625 1.0039-1.0312 0.046876-0.070312 0.12891-0.097656 0.17188-0.17578 0.058593-0.10938 0.058593-0.22656 0.10547-0.33984 0.09375-0.21875 0.16016-0.4375 0.20703-0.67188 0.042968-0.22656 0.070312-0.44531 0.070312-0.67578-0.003906-0.23828-0.03125-0.44531-0.066406-0.66406zm-27.109-5.8281 0.33594 13.934-13.109-7.2695zm4.7461 0.22656 11.418 6.207-11.129 5.9141zm89.262 42.527c0-0.22656-0.019531-0.44141-0.066406-0.66797-0.046875-0.23828-0.11719-0.45312-0.22266-0.68359-0.046875-0.11719-0.058594-0.25-0.11719-0.37109-0.046875-0.085938-0.12891-0.13281-0.17578-0.20703-0.13672-0.19922-0.29297-0.36328-0.46484-0.53516-0.17578-0.17188-0.33984-0.32031-0.53516-0.44922-0.085938-0.050781-0.12891-0.13672-0.22266-0.18359l-22.727-12.348c-0.11719-0.0625-0.24609-0.0625-0.37109-0.11328-0.22266-0.089844-0.4375-0.16016-0.67188-0.20312-0.22656-0.042969-0.44531-0.0625-0.67187-0.0625-0.22266 0-0.4375 0.019531-0.66406 0.066406-0.23828 0.046875-0.45312 0.11719-0.67578 0.21484-0.11719 0.046875-0.24609 0.050781-0.36328 0.11328l-22.527 12.461c-0.085938 0.046875-0.12891 0.125-0.20312 0.17578-0.19922 0.13281-0.375 0.28906-0.54297 0.46484-0.17188 0.17188-0.32812 0.33984-0.46094 0.53906-0.050782 0.082031-0.12891 0.125-0.17578 0.20703-0.066406 0.11328-0.066406 0.24219-0.11328 0.36328-0.097656 0.22656-0.17578 0.44922-0.21875 0.69531-0.042969 0.22266-0.0625 0.4375-0.0625 0.66406 0 0.22656 0.015625 0.44141 0.058594 0.66406 0.046875 0.24219 0.125 0.46484 0.21875 0.69141 0.050781 0.11719 0.050781 0.24609 0.11328 0.36328 0.03125 0.066406 0.10547 0.089843 0.14844 0.14844 0.27344 0.4375 0.625 0.82031 1.0859 1.1094 0.046875 0.027344 0.082031 0.082031 0.125 0.10547 0.007813 0.003906 0.015625 0.015625 0.027344 0.023438l22.684 12.578 0.042969 0.023438c0.54297 0.30469 1.1367 0.44531 1.7188 0.44531 0.59375 0 1.1875-0.14844 1.7422-0.46094l22.523-12.715c0.007813-0.003906 0.019532-0.015625 0.027344-0.019531 0.039062-0.023438 0.066406-0.074219 0.10938-0.097656 0.46484-0.29297 0.82422-0.68359 1.0898-1.1289 0.039062-0.0625 0.10938-0.085938 0.14844-0.15234 0.066406-0.11719 0.066406-0.24609 0.11719-0.37109 0.09375-0.22656 0.16406-0.44531 0.20312-0.69141 0.058593-0.21484 0.070312-0.42969 0.070312-0.65625zm-28.59-6.9531 0.003906 14.211-12.836-7.1133zm4.7383 14.387-0.003907-14.426 13.023 7.0742zm-50.539 58.023c0 0.14062 0.070313 0.26562 0.089844 0.39844 0.027344 0.24219 0.070312 0.46484 0.15234 0.69141 0.074218 0.22266 0.17578 0.41797 0.28906 0.60938 0.10938 0.19531 0.22656 0.37109 0.375 0.53906 0.16016 0.1875 0.34766 0.33594 0.54297 0.48828 0.10938 0.089843 0.18359 0.20312 0.30469 0.28125l22.285 13.137c0.058593 0.03125 0.125 0.019532 0.18359 0.050782 0.49219 0.25391 1.0234 0.4375 1.6094 0.44141h0.003906 0.027344c0.56641-0.003906 1.0859-0.17188 1.5586-0.41797 0.13281-0.066406 0.23828-0.16016 0.35938-0.24609 0.35547-0.24219 0.65234-0.53125 0.90625-0.88672 0.058594-0.085937 0.15625-0.11328 0.20312-0.20312 0.042969-0.074219 0.042969-0.15625 0.082031-0.23047 0.10547-0.21484 0.17188-0.4375 0.23047-0.66797 0.0625-0.23828 0.11719-0.46094 0.13281-0.69531 0.003906-0.085938 0.046875-0.15625 0.046875-0.24219l-0.22266-26.145c0-0.15234-0.070312-0.28125-0.089843-0.42578-0.027344-0.24219-0.066407-0.46875-0.14062-0.69531-0.082032-0.21875-0.18359-0.41016-0.29688-0.60938-0.10938-0.19531-0.22266-0.375-0.37109-0.53906-0.16406-0.1875-0.35547-0.33594-0.55859-0.49219-0.11328-0.085938-0.1875-0.20312-0.31641-0.28125l-22.504-13.004c-0.10547-0.0625-0.21875-0.0625-0.32812-0.10938-0.16406-0.082031-0.33594-0.11719-0.51172-0.17578-0.25391-0.070313-0.50391-0.13672-0.76562-0.14844-0.082031-0.003906-0.15234-0.042969-0.22656-0.042969-0.14063 0-0.26563 0.070313-0.40234 0.089844-0.24609 0.03125-0.47656 0.074219-0.71094 0.15625-0.21484 0.074219-0.40234 0.17969-0.59766 0.29297-0.19922 0.11328-0.37891 0.23047-0.55078 0.38281-0.18359 0.16406-0.33203 0.34766-0.48438 0.54297-0.085938 0.11328-0.19922 0.18359-0.27344 0.30859-0.042968 0.070312-0.042968 0.15625-0.074218 0.22656-0.10547 0.21484-0.16406 0.44141-0.22656 0.67578-0.058594 0.23047-0.11328 0.45313-0.12891 0.69141-0.003907 0.085937-0.046875 0.15625-0.042969 0.24219zm22.23 6.8242-12.797-7.543 12.668-7.3008zm-15.207-11.621-0.26172-15.059 13.18 7.6094zm89.977-22.395c-0.058594-0.23047-0.11719-0.45312-0.23047-0.66797-0.039063-0.082031-0.039063-0.16406-0.085938-0.24609-0.066406-0.11719-0.18359-0.19531-0.26953-0.30469-0.14844-0.19531-0.29297-0.375-0.48438-0.53125-0.17578-0.15234-0.35156-0.27344-0.55469-0.38672-0.18359-0.10938-0.37891-0.20703-0.59375-0.28516-0.23047-0.085938-0.47266-0.125-0.71094-0.15625-0.13672-0.019532-0.25-0.085938-0.38672-0.085938-0.085938 0-0.14844 0.042969-0.22266 0.046875-0.32031 0.015625-0.62891 0.097657-0.95312 0.20312-0.085938 0.027344-0.16406 0.046875-0.24219 0.085938-0.14844 0.0625-0.30469 0.070312-0.44531 0.15234l-22.301 13.117c-0.12891 0.074219-0.19922 0.19531-0.3125 0.28125-0.19531 0.15234-0.37891 0.29688-0.53516 0.48828-0.14844 0.17188-0.26953 0.35547-0.37891 0.55078-0.10938 0.19922-0.21484 0.38672-0.28906 0.60547-0.085937 0.22656-0.11719 0.46094-0.14844 0.69922-0.019531 0.14062-0.085937 0.26562-0.085937 0.40625l-0.22266 26.141c0 0.089844 0.039063 0.16016 0.046875 0.25 0.015625 0.24219 0.074219 0.46875 0.13672 0.69922 0.0625 0.23828 0.125 0.45312 0.23047 0.66797 0.042968 0.082031 0.042968 0.16016 0.089844 0.24219 0.050781 0.089844 0.14844 0.11719 0.20703 0.19922 0.25 0.34766 0.54297 0.63281 0.89844 0.875 0.125 0.082031 0.22266 0.17578 0.35156 0.24219 0.47266 0.24219 0.98438 0.40625 1.5469 0.41016h0.039062c0.40625 0 0.81641-0.097657 1.2109-0.24609 0.10938-0.039063 0.20312-0.082032 0.30469-0.12891 0.097657-0.046876 0.21484-0.070313 0.30469-0.12891l22.078-13.25c0.11719-0.074219 0.19531-0.1875 0.29297-0.27344 0.20313-0.14844 0.37891-0.29688 0.53516-0.49219 0.14844-0.16406 0.26953-0.34766 0.37109-0.53516 0.11719-0.19922 0.21484-0.39453 0.28906-0.60938 0.085937-0.23047 0.11719-0.46094 0.15625-0.69531 0.019531-0.12891 0.074219-0.24609 0.085937-0.37891l0.4375-26.008c0-0.089844-0.039062-0.16406-0.046874-0.25391 0.003906-0.24609-0.054688-0.46484-0.11328-0.69922zm-7.2891 22.203-12.906-7.3086 13.16-7.7383zm-14.875-2.9766 12.461 7.0547-12.578 7.5547zm-45.227 70.691c-0.074219-0.22266-0.16406-0.41797-0.28516-0.61719-0.10547-0.19531-0.22266-0.37109-0.37109-0.53906-0.16016-0.1875-0.33984-0.34766-0.53516-0.49609-0.10547-0.082032-0.17188-0.19531-0.28516-0.26562l-21.863-13.379c-0.074219-0.046874-0.16016-0.046874-0.23828-0.089843-0.25391-0.13672-0.51562-0.22656-0.79688-0.29297-0.19922-0.046875-0.38281-0.085938-0.58203-0.09375-0.10547-0.003906-0.19922-0.058594-0.29688-0.050781-0.125 0-0.22656 0.0625-0.35156 0.082031-0.25 0.027344-0.48437 0.074219-0.71875 0.15625-0.21484 0.074219-0.41016 0.16406-0.60547 0.28125-0.19531 0.10938-0.37109 0.23047-0.53906 0.37891-0.1875 0.16016-0.34766 0.33594-0.49609 0.53125-0.074219 0.097656-0.18359 0.16016-0.25 0.27344-0.050782 0.085937-0.050782 0.17969-0.097657 0.26953-0.10938 0.21484-0.17969 0.4375-0.24609 0.67188-0.0625 0.23047-0.11328 0.46094-0.12891 0.69141-0.003906 0.097656-0.058593 0.17969-0.050781 0.28516l0.42188 24.539c0 0.12891 0.0625 0.23828 0.082031 0.35938 0.027344 0.23828 0.074219 0.46484 0.15234 0.69141 0.070312 0.21875 0.16016 0.41797 0.27344 0.61719 0.10547 0.1875 0.22656 0.36328 0.37109 0.53516 0.16016 0.1875 0.33594 0.34766 0.53125 0.49609 0.097657 0.082031 0.16016 0.18359 0.26953 0.25391l21.656 13.488c0.10547 0.066407 0.22266 0.09375 0.33594 0.14844 0.10547 0.058593 0.21484 0.097656 0.32812 0.14062 0.39844 0.14844 0.80078 0.24609 1.2109 0.24609h0.027344c0.55859-0.003907 1.0664-0.16016 1.5352-0.39844 0.13281-0.066406 0.23828-0.16406 0.36328-0.25 0.34766-0.22656 0.63281-0.49609 0.88281-0.82812 0.058594-0.085937 0.15625-0.10938 0.20703-0.19922 0.050781-0.089844 0.058593-0.18359 0.097656-0.27344 0.10938-0.20703 0.17969-0.42578 0.24609-0.66016 0.066406-0.23828 0.11719-0.46484 0.13672-0.69531 0.003906-0.097656 0.050782-0.17969 0.050782-0.28516l-0.21484-24.645c0-0.13281-0.066406-0.25-0.082032-0.38281-0.027343-0.24219-0.070312-0.46875-0.14453-0.69531zm-21.531-5.8633 10.953 6.707-10.727 6.5391zm14.676 9.9766 0.13281 15.207-12.402-7.7227zm72.938-17.555c-0.066406-0.23828-0.13672-0.45312-0.25-0.66797-0.046874-0.09375-0.046874-0.19531-0.097656-0.28516-0.066406-0.10547-0.17578-0.16406-0.25-0.26562-0.14844-0.19531-0.3125-0.36328-0.49609-0.52734-0.17578-0.14844-0.35156-0.27344-0.54297-0.37891-0.19531-0.10938-0.38672-0.19922-0.60156-0.26953-0.24219-0.085938-0.47266-0.13281-0.71875-0.16016-0.11719-0.015625-0.22266-0.074219-0.33984-0.074219h-0.058594c-0.09375 0-0.16406 0.042969-0.26172 0.050781-0.24219 0.019532-0.47266 0.074219-0.69922 0.13672-0.23047 0.070313-0.44531 0.13672-0.66016 0.25-0.085938 0.042969-0.17578 0.046875-0.26172 0.097656l-21.66 13.496c-0.10938 0.070313-0.17578 0.18359-0.28125 0.26562-0.19531 0.15234-0.36328 0.30469-0.51953 0.49219-0.14062 0.17187-0.26562 0.35156-0.375 0.54297-0.10938 0.19922-0.20312 0.39453-0.27344 0.61719-0.082031 0.22656-0.11328 0.45312-0.14062 0.69141-0.019531 0.125-0.085937 0.24219-0.085937 0.37109l-0.20703 24.645c0 0.10547 0.050782 0.19531 0.0625 0.29297 0.015626 0.23828 0.066407 0.46484 0.12891 0.69141 0.070312 0.23828 0.14844 0.45312 0.26172 0.66797 0.046874 0.09375 0.046874 0.1875 0.097656 0.28125 0.058594 0.085937 0.14844 0.10938 0.20312 0.1875 0.25 0.32812 0.53906 0.59766 0.89062 0.82422 0.11719 0.085937 0.22266 0.17969 0.35156 0.24609 0.46875 0.23047 0.97266 0.38672 1.5234 0.39453h0.03125 0.003906c0.40625 0 0.81641-0.097656 1.2109-0.24609 0.11719-0.042969 0.22266-0.09375 0.33203-0.14844 0.11719-0.058593 0.24219-0.089843 0.35156-0.15625l21.449-13.605c0.10938-0.070312 0.16406-0.17578 0.26172-0.25 0.19531-0.15234 0.37109-0.3125 0.52734-0.50391 0.14844-0.17188 0.26953-0.34766 0.37109-0.53516 0.10938-0.19922 0.20312-0.39844 0.26953-0.60938 0.085937-0.23047 0.12891-0.46094 0.15625-0.69922 0.007812-0.11328 0.074218-0.21875 0.074218-0.33594l0.41797-24.535c0-0.10547-0.046875-0.19531-0.058594-0.29297-0.023437-0.23438-0.070312-0.46094-0.13672-0.69531zm-7.2617 20.629-10.703-6.4141 10.934-6.8164zm-14.242-3.0156 12.07 7.2266-12.199 7.7383zm-199.11-140.35c0.003906 0.11719 0.066406 0.21484 0.085937 0.32812 0.03125 0.22266 0.089844 0.42969 0.17188 0.64453 0.082031 0.22266 0.17578 0.42578 0.29297 0.625 0.10938 0.17969 0.22656 0.33594 0.36328 0.49609 0.17188 0.19531 0.35547 0.35156 0.5625 0.50391 0.097656 0.070313 0.15625 0.17578 0.26562 0.23828l19.832 11.688c0.058594 0.03125 0.12891 0.019531 0.1875 0.050781 0.49219 0.25391 1.0234 0.44141 1.6133 0.44141 0.066406 0 0.13281 0 0.19922-0.003906 0.53125-0.027344 1.0195-0.19531 1.457-0.42578 0.097656-0.050782 0.17187-0.13672 0.26172-0.19922 0.38281-0.25391 0.69922-0.56641 0.96094-0.94141 0.046875-0.074218 0.13672-0.097656 0.17969-0.17969 0.058594-0.09375 0.058594-0.20312 0.10547-0.29688 0.10547-0.21875 0.17969-0.44141 0.23828-0.68359 0.058594-0.23047 0.09375-0.46094 0.097657-0.69531 0.003906-0.10938 0.050781-0.20703 0.046874-0.32031l-1.4141-25.355c-0.003906-0.125-0.070312-0.22656-0.089844-0.35156-0.039062-0.23828-0.09375-0.45312-0.17969-0.68359-0.082031-0.21875-0.17969-0.41797-0.29688-0.61719-0.11328-0.18359-0.24219-0.35156-0.38672-0.51172-0.17188-0.18359-0.35156-0.33984-0.55469-0.48828-0.09375-0.070313-0.15625-0.17188-0.26172-0.23047l-20.008-11.555c-0.09375-0.050781-0.19922-0.050781-0.29297-0.097656-0.21484-0.097656-0.42969-0.17188-0.66797-0.22266-0.24609-0.0625-0.48828-0.097656-0.73828-0.10547-0.10547 0-0.19922-0.046875-0.30469-0.042969-0.11328 0.003907-0.20703 0.066407-0.31641 0.085938-0.24609 0.039062-0.47656 0.097656-0.70703 0.1875-0.21484 0.082031-0.40625 0.17578-0.59375 0.29297-0.1875 0.11328-0.35937 0.25-0.52734 0.40234-0.17969 0.16406-0.33594 0.34766-0.48438 0.54297-0.066406 0.09375-0.16406 0.15234-0.22266 0.25391-0.058594 0.097656-0.058594 0.20312-0.097657 0.30469-0.097656 0.21875-0.17188 0.4375-0.22656 0.67578-0.058594 0.24219-0.089844 0.46484-0.097657 0.69922 0 0.10938-0.050781 0.20703-0.042968 0.31641zm19.461 5.0352-9.7734-5.7578 9.1875-4.7344zm-0.875-15.676-11.754 6.0625-0.91406-14.473 12.605 7.2773zm50.781-52.5c-0.042969-0.24609-0.097656-0.47656-0.19531-0.71094-0.039062-0.097657-0.03125-0.19922-0.082031-0.29297-0.058593-0.10938-0.15234-0.17578-0.21484-0.27344-0.12891-0.20312-0.26953-0.38672-0.44141-0.5625s-0.35156-0.32812-0.55469-0.46484c-0.097656-0.066407-0.16016-0.16406-0.26562-0.22266l-20.227-10.988c-0.089844-0.046875-0.1875-0.046875-0.28125-0.085938-0.22656-0.097656-0.46094-0.16406-0.69922-0.21484-0.21875-0.042969-0.42188-0.085938-0.64063-0.089844-0.22266-0.003906-0.4375 0.023437-0.66016 0.066406-0.24609 0.039063-0.47656 0.09375-0.70703 0.1875-0.09375 0.039063-0.1875 0.027344-0.28125 0.074219l-22.465 11.09c-0.10547 0.050781-0.17188 0.14844-0.26953 0.20703-0.20703 0.12891-0.39453 0.26953-0.57422 0.44531-0.17969 0.17187-0.32812 0.34766-0.46484 0.54297-0.066407 0.097656-0.16406 0.15625-0.22266 0.26562-0.050781 0.09375-0.050781 0.19922-0.09375 0.29297-0.097656 0.22656-0.17188 0.45312-0.21875 0.69531-0.046875 0.21875-0.085937 0.42969-0.089843 0.65234-0.003907 0.22266 0.019531 0.42969 0.058593 0.65234 0.042969 0.24609 0.097657 0.47266 0.1875 0.70703 0.039063 0.097657 0.03125 0.19922 0.082031 0.29297 0.074219 0.15234 0.1875 0.27344 0.28125 0.40625 0.066407 0.097656 0.11719 0.19531 0.19922 0.28516 0.26953 0.32812 0.58594 0.59766 0.94141 0.80078 0.019531 0.007812 0.027343 0.027343 0.042968 0.039062l20.207 11.199c0.54297 0.30469 1.1367 0.44531 1.7188 0.44531 0.53516 0 1.0859-0.11719 1.5898-0.37891l22.484-11.305c0.039063-0.019532 0.0625-0.058594 0.097656-0.082032 0.10938-0.0625 0.18359-0.15625 0.28906-0.22656 0.39453-0.27344 0.71094-0.59766 0.95703-0.98438 0.050782-0.074219 0.13672-0.10547 0.17969-0.18359 0.050781-0.09375 0.046875-0.19922 0.09375-0.29688 0.09375-0.22266 0.16016-0.44141 0.20703-0.68359 0.046875-0.22266 0.085937-0.44141 0.085937-0.66797 0.011719-0.20703-0.019531-0.41406-0.054687-0.63281zm-25.848 7.8789-12.637-7.0039 12.672-6.2578 0.59766 12.941zm4.8008-12.809 9.9414 5.4023-9.4727 4.7578zm-3.543 188.91c0 0.046875 0.027344 0.085938 0.03125 0.12891 0.003907 0.097656 0.023438 0.19531 0.042969 0.29297 0.03125 0.1875 0.097656 0.35938 0.16016 0.53906 0.0625 0.17187 0.10547 0.33594 0.18359 0.49219 0.023438 0.046875 0.023438 0.097656 0.046875 0.14062 0.019531 0.039062 0.0625 0.046875 0.082031 0.085938 0.09375 0.14844 0.21484 0.27344 0.32812 0.40625 0.16016 0.1875 0.32812 0.35547 0.52734 0.50391 0.089844 0.070312 0.14062 0.17188 0.24219 0.23047l60.805 38.512c0.11328 0.074219 0.24219 0.10547 0.35938 0.16016 0.10938 0.058593 0.21484 0.10547 0.33203 0.14844 0.39453 0.14062 0.79688 0.24219 1.2031 0.24219h0.09375c0.54297-0.015624 1.0391-0.17187 1.4922-0.39844 0.11719-0.0625 0.20703-0.15625 0.32031-0.23047 0.35156-0.23047 0.65234-0.50391 0.89844-0.83984 0.058593-0.074218 0.14844-0.10547 0.19922-0.18359 0.0625-0.097657 0.070312-0.21484 0.11719-0.3125 0.10547-0.20703 0.18359-0.41797 0.24609-0.64453 0.066406-0.24609 0.10938-0.47656 0.12891-0.72266 0.003906-0.10547 0.058594-0.19922 0.050781-0.30859l-1.8594-73.281c0-0.11719-0.066406-0.22266-0.085937-0.33984-0.03125-0.27344-0.09375-0.51953-0.1875-0.78125-0.0625-0.16016-0.12891-0.3125-0.21875-0.46875-0.14062-0.26562-0.31641-0.49219-0.52734-0.71484-0.10938-0.11328-0.22266-0.21875-0.35156-0.31641-0.12891-0.097656-0.21484-0.23828-0.35547-0.32031l-62.457-37.523c-0.097657-0.0625-0.21484-0.0625-0.31641-0.10938-0.19531-0.089844-0.39453-0.15625-0.60156-0.21484-0.26172-0.070313-0.50781-0.11328-0.77344-0.125-0.10938-0.003906-0.19922-0.050781-0.30859-0.050781-0.11719 0.003906-0.21484 0.066406-0.33203 0.085937-0.24219 0.03125-0.46484 0.09375-0.69141 0.17578-0.21484 0.082032-0.40625 0.16406-0.60156 0.28125-0.19531 0.11328-0.36328 0.24609-0.53516 0.39844-0.18359 0.16016-0.33594 0.33203-0.48438 0.52734-0.070312 0.09375-0.16406 0.15234-0.22656 0.25s-0.0625 0.20703-0.10938 0.3125c-0.097657 0.20703-0.17578 0.42578-0.23047 0.66016-0.0625 0.24219-0.097656 0.47266-0.10938 0.71484-0.003906 0.10938-0.050781 0.20312-0.046875 0.31641zm27.559-42.16-0.39453-9.8555 8.6367 5.1914zm-6.8672 6.0977c0 0.046875 0.027343 0.085938 0.027343 0.12891 0.015625 0.21484 0.09375 0.41797 0.15234 0.62891 0.066406 0.24609 0.11719 0.49219 0.23047 0.71094 0.023437 0.042969 0.019531 0.09375 0.042968 0.13281 0.046876 0.082032 0.13281 0.10938 0.18359 0.18359 0.25391 0.38281 0.57422 0.69922 0.95703 0.95703 0.125 0.089843 0.23047 0.17187 0.36328 0.24219 0.48828 0.24609 1.0078 0.42188 1.5859 0.42188h0.003906c0.046876 0 0.09375 0 0.14063-0.003906 0.55078-0.023438 1.0469-0.1875 1.4961-0.42969 0.03125-0.019531 0.074219-0.007812 0.10938-0.027344l16.797-9.5156 13.344 8.0117-49.324 28.461-2.9141-59.836 15.973 9.5938zm39.254 40.828-7.9922-4.9688 7.7539-4.5508zm-0.44922-17.637-16.211 9.5195c-0.042969 0.023437-0.0625 0.070312-0.10547 0.09375-0.19922 0.12891-0.35938 0.30469-0.53516 0.47656-0.17187 0.16406-0.35156 0.31641-0.48437 0.51172-0.027344 0.042969-0.074219 0.066406-0.097657 0.10547-0.089843 0.14062-0.10547 0.30469-0.17188 0.46094-0.097656 0.23047-0.20703 0.45312-0.26172 0.69531-0.046876 0.22656-0.039063 0.44531-0.042969 0.67187-0.003907 0.22656-0.015625 0.44922 0.023437 0.68359 0.042969 0.24219 0.14062 0.46094 0.23828 0.6875 0.066406 0.15625 0.074218 0.32812 0.16406 0.48438 0.023438 0.039063 0.066406 0.050781 0.089844 0.089844 0.28125 0.44141 0.62891 0.83984 1.0977 1.1289l16.953 10.539 0.46875 18.516-50.211-31.824 48.703-28.102zm-95.777-62.156c-0.085937-0.050781-0.17969-0.050781-0.26953-0.097656-0.24219-0.125-0.49219-0.21484-0.76562-0.28125-0.22266-0.058594-0.44141-0.082031-0.67188-0.089844-0.12891-0.003906-0.24219-0.058594-0.375-0.050781-0.10547 0.003906-0.19531 0.066406-0.29688 0.082031-0.23828 0.03125-0.45312 0.097656-0.68359 0.17969-0.21875 0.082031-0.41797 0.16016-0.60938 0.28125-0.1875 0.11328-0.35156 0.25-0.51562 0.39844-0.18359 0.16406-0.34766 0.33203-0.49219 0.53125-0.0625 0.082031-0.14844 0.13281-0.20312 0.21875-0.066407 0.10547-0.070313 0.22656-0.125 0.33984-0.10547 0.21875-0.18359 0.42969-0.24609 0.67188-0.058594 0.23828-0.089844 0.46484-0.097656 0.70703-0.003907 0.125-0.058594 0.23047-0.046875 0.35938l1.5078 23.863c0.003906 0.097656 0.0625 0.1875 0.074219 0.28906 0.03125 0.22656 0.09375 0.4375 0.17188 0.64844 0.082031 0.22266 0.16016 0.42969 0.28125 0.62891 0.10547 0.17578 0.22656 0.33594 0.36328 0.49219 0.16406 0.19531 0.33984 0.35938 0.54297 0.51172 0.089844 0.066406 0.14062 0.16016 0.23828 0.22266l19.336 12.043c0.11328 0.074219 0.24219 0.097656 0.36328 0.16016 0.10938 0.050781 0.21484 0.097657 0.33203 0.14062 0.38672 0.13672 0.78125 0.23047 1.1836 0.23047 0.066406 0 0.13281 0 0.19922-0.003906 0.51953-0.027344 1-0.18359 1.4336-0.41016 0.089843-0.046874 0.15234-0.125 0.23828-0.17578 0.38672-0.24609 0.71094-0.55078 0.97656-0.91797 0.046875-0.066406 0.12891-0.09375 0.17188-0.16016 0.066406-0.10547 0.070313-0.22656 0.125-0.33594 0.10938-0.21875 0.19531-0.4375 0.25391-0.67578 0.058594-0.23828 0.089844-0.46484 0.097657-0.69531 0.003906-0.125 0.0625-0.23828 0.050781-0.36328l-1.3398-23.977c-0.003906-0.11328-0.066406-0.19922-0.082031-0.30859-0.03125-0.23047-0.09375-0.44531-0.17188-0.66797-0.082031-0.21875-0.16406-0.42578-0.28516-0.62109-0.11328-0.19531-0.25-0.35938-0.39844-0.52734-0.14844-0.16406-0.30469-0.3125-0.48438-0.44531-0.097656-0.082031-0.16406-0.1875-0.27344-0.25391zm2.1211 9.625 11.402 6.9766-10.594 5.8008zm12.328 11.863 0.60547 10.812-9.5234-5.9297zm-9.5 49.164c-0.003906 0-0.007812 0-0.007812-0.003906l-0.42969-0.28125c-0.03125-0.023438-0.074219-0.023438-0.10938-0.042969-0.32812-0.20312-0.67578-0.33984-1.0664-0.41797-0.15625-0.03125-0.30469-0.03125-0.46094-0.046875-0.17578-0.003906-0.33203-0.074219-0.51562-0.050781-0.09375 0.003906-0.16406 0.058594-0.25391 0.070312-0.23828 0.03125-0.46094 0.097657-0.6875 0.18359-0.21484 0.074219-0.42188 0.14844-0.60938 0.26172-0.1875 0.10938-0.35156 0.25-0.51562 0.39844-0.1875 0.16016-0.35938 0.32031-0.50781 0.51953-0.050782 0.070312-0.13281 0.10938-0.17969 0.18359-0.074219 0.11328-0.085938 0.25-0.14062 0.37109-0.10938 0.21875-0.19922 0.42969-0.26562 0.67188-0.066406 0.24219-0.089844 0.47266-0.097656 0.71094-0.003906 0.13281-0.0625 0.25391-0.050782 0.39453l1.4258 22.621c0.003906 0.089843 0.050781 0.16016 0.066406 0.25 0.027344 0.22266 0.09375 0.42969 0.17188 0.64844 0.074219 0.22266 0.15234 0.42969 0.26562 0.63281 0.097656 0.17578 0.22656 0.32812 0.35938 0.49219 0.16406 0.19531 0.33203 0.37109 0.53125 0.51953 0.082031 0.066406 0.125 0.15234 0.20703 0.20703l18.859 12.336c0.12891 0.085938 0.27344 0.125 0.40625 0.1875 0.11328 0.058594 0.22266 0.11328 0.33984 0.15625 0.38672 0.13672 0.78906 0.23047 1.1875 0.23047 0.066406 0 0.13281 0 0.19922-0.003906 0.51172-0.027344 0.98438-0.17578 1.4141-0.39844 0.074219-0.039062 0.12891-0.10547 0.19922-0.14844 0.39453-0.24219 0.73047-0.55078 1.0039-0.91797 0.042969-0.058594 0.11328-0.082031 0.15234-0.13672 0.074219-0.10938 0.085937-0.24219 0.14062-0.35547 0.11328-0.22266 0.20703-0.44141 0.27344-0.6875 0.0625-0.23828 0.089843-0.46484 0.097656-0.69922 0.007812-0.13281 0.066406-0.26172 0.058594-0.39844l-1.2734-22.715c-0.003906-0.09375-0.058594-0.17188-0.070312-0.26563-0.03125-0.25-0.10547-0.47656-0.1875-0.71484-0.074219-0.20312-0.14063-0.39844-0.25-0.58203-0.11328-0.19922-0.26172-0.36328-0.41016-0.53906-0.16016-0.18359-0.31641-0.35547-0.51562-0.50391-0.070312-0.050781-0.10938-0.12891-0.18359-0.17969zm1.6211 9.5 9.5078 6.1289-8.8047 5.082zm11.742 10.309 0.61719 11.035-9.2539-6.0508zm66.004 33.133c0-0.10547-0.058594-0.1875-0.070313-0.29297-0.027344-0.26172-0.09375-0.49609-0.17969-0.74219-0.066407-0.1875-0.13281-0.36328-0.22656-0.53125-0.12891-0.24219-0.29297-0.44531-0.47266-0.64844-0.125-0.13672-0.24609-0.26562-0.39453-0.37891-0.097657-0.085937-0.16406-0.19922-0.28125-0.27344l-20.09-12.938c-0.046875-0.027344-0.097656-0.027344-0.14844-0.058594-0.32031-0.19922-0.66016-0.33203-1.0273-0.40234-0.14844-0.03125-0.28906-0.039062-0.44141-0.050781-0.15625-0.003906-0.29688-0.070312-0.45312-0.050781-0.097656 0.003906-0.17578 0.058593-0.27344 0.066406-0.25391 0.03125-0.49219 0.097656-0.73828 0.17969-0.19922 0.074219-0.39453 0.14063-0.57812 0.25-0.19922 0.10938-0.375 0.25-0.55078 0.40234-0.18359 0.16016-0.35156 0.31641-0.49219 0.51172-0.0625 0.082031-0.15234 0.125-0.20703 0.21484-0.070313 0.10547-0.074219 0.22656-0.13281 0.33594-0.10938 0.21875-0.19922 0.42969-0.26562 0.67188-0.0625 0.23828-0.097656 0.46484-0.10938 0.69922-0.007813 0.125-0.0625 0.23047-0.058594 0.35938l0.94141 22.902c0.003906 0.097656 0.058593 0.18359 0.070312 0.28906 0.027344 0.22656 0.085938 0.44141 0.15625 0.66016 0.074219 0.22656 0.15234 0.4375 0.26953 0.64062 0.097657 0.17969 0.22266 0.33594 0.35938 0.49609 0.16016 0.19922 0.33203 0.37109 0.53125 0.52734 0.085938 0.066406 0.13281 0.15625 0.22266 0.21875l19.914 13.027c0.125 0.085937 0.26562 0.11328 0.39453 0.17969 0.11328 0.0625 0.22266 0.11328 0.34766 0.16016 0.39453 0.13672 0.79688 0.23828 1.2031 0.23828h0.11719c0.53125-0.019531 1.0195-0.16406 1.4648-0.39453 0.10938-0.058594 0.1875-0.14063 0.29297-0.21484 0.35937-0.22656 0.66797-0.50391 0.92187-0.84375 0.050782-0.066406 0.13281-0.09375 0.17969-0.16016 0.070312-0.10547 0.074219-0.22656 0.13281-0.33203 0.10938-0.21875 0.19922-0.42969 0.26563-0.66797 0.066406-0.23828 0.097656-0.46875 0.11719-0.70703 0.007813-0.125 0.066406-0.23047 0.0625-0.35547zm-19.805-6.125 9.3359 6.0156-8.8672 5.3828zm12.809 9.4453 0.4375 13.074-10.57-6.9141zm69.348 36.02c-0.070312-0.21875-0.15234-0.41797-0.26172-0.60938-0.10547-0.19531-0.22656-0.375-0.37891-0.55078-0.15625-0.18359-0.32031-0.34766-0.51172-0.49219-0.09375-0.082031-0.15234-0.18359-0.26172-0.25391l-21.25-13.695c-0.03125-0.023438-0.074219-0.023438-0.10938-0.042969-0.28516-0.16406-0.58594-0.28516-0.92969-0.35938-0.19922-0.050782-0.38672-0.085938-0.58594-0.097656-0.12891-0.007813-0.23047-0.066407-0.36328-0.0625-0.125 0-0.22656 0.0625-0.34766 0.074218-0.23047 0.027344-0.44531 0.082032-0.66406 0.14844-0.22656 0.074218-0.44141 0.15625-0.64453 0.27344-0.18359 0.10547-0.35156 0.22656-0.51562 0.36328-0.19531 0.16016-0.36328 0.33203-0.51953 0.53125-0.070312 0.089844-0.16406 0.13672-0.22656 0.23828-0.0625 0.09375-0.066407 0.20312-0.11328 0.29297-0.11328 0.21875-0.19922 0.4375-0.26562 0.67188-0.066406 0.23828-0.10938 0.46094-0.12891 0.69531-0.003906 0.10938-0.0625 0.20703-0.058594 0.31641l0.39844 23.188c0 0.11328 0.058593 0.20703 0.070312 0.32031 0.027344 0.23828 0.082031 0.46094 0.15234 0.69141 0.070313 0.21875 0.15234 0.42188 0.26172 0.62109 0.10547 0.1875 0.22656 0.35938 0.37109 0.53125 0.15625 0.1875 0.32031 0.35547 0.51562 0.51172 0.089844 0.070312 0.14063 0.17187 0.24219 0.23828l21.055 13.777c0.11719 0.082032 0.25391 0.11328 0.38281 0.17578 0.11328 0.058594 0.21875 0.10938 0.33594 0.15625 0.39844 0.14844 0.80859 0.24609 1.2227 0.24609h0.03125c0.55078-0.003907 1.0508-0.15625 1.5117-0.38281 0.12891-0.0625 0.22656-0.16016 0.35156-0.24219 0.33984-0.22266 0.63281-0.48828 0.88672-0.80469 0.058594-0.074219 0.14062-0.097656 0.19531-0.17969 0.0625-0.09375 0.066406-0.19922 0.11719-0.29297 0.11328-0.21484 0.19922-0.42969 0.26562-0.66406 0.070312-0.23828 0.11328-0.46484 0.13672-0.69922 0.007812-0.10547 0.0625-0.20312 0.0625-0.3125l-0.20313-23.273c0-0.11719-0.0625-0.22656-0.070312-0.33984-0.039062-0.24609-0.085938-0.47266-0.15625-0.70703zm-20.918-6.0234 9.082 5.8516-8.8828 5.7031zm13.461 8.6719 0.58594 0.38281 0.13281 14.711-12-7.8516zm71.664-16.48c-0.074219-0.23828-0.15625-0.45312-0.26953-0.66797-0.058594-0.097656-0.066406-0.21484-0.12891-0.30859-0.058594-0.09375-0.15625-0.14062-0.22266-0.22656-0.15625-0.19531-0.32031-0.35938-0.51563-0.51953-0.16406-0.13672-0.33203-0.26562-0.52734-0.37109-0.20312-0.10938-0.40625-0.19531-0.62891-0.26562-0.22266-0.074219-0.44531-0.125-0.67578-0.14844-0.11719-0.015625-0.21484-0.074218-0.33203-0.074218h-0.066406c-0.10938 0-0.20312 0.050781-0.3125 0.066406-0.22266 0.019531-0.4375 0.066406-0.66016 0.12891-0.24219 0.070312-0.47266 0.15625-0.69141 0.28125-0.09375 0.046875-0.19531 0.050781-0.28125 0.10938l-21.051 13.809c-0.19531 0.125-0.3125 0.30859-0.47266 0.46484-0.058594 0.050782-0.097656 0.10547-0.15625 0.15625-0.21484 0.23828-0.39453 0.47656-0.53516 0.75-0.09375 0.16406-0.15625 0.34766-0.22266 0.53125-0.074219 0.23828-0.11719 0.46484-0.14844 0.70703-0.007813 0.11328-0.070313 0.20703-0.070313 0.32812l-0.19922 23.266c0 0.11328 0.050782 0.21875 0.0625 0.32812 0.023438 0.24219 0.070313 0.47266 0.13281 0.70703 0.074219 0.23047 0.15625 0.44141 0.26953 0.65234 0.058594 0.097656 0.066406 0.21875 0.12891 0.3125 0.058594 0.082031 0.14063 0.10547 0.19922 0.17578 0.24609 0.3125 0.53125 0.56641 0.875 0.78516 0.11719 0.082031 0.22266 0.17969 0.35156 0.24219 0.46094 0.22656 0.95703 0.375 1.5 0.37891h0.03125c0.41797 0 0.82422-0.097656 1.2227-0.24609 0.11719-0.046875 0.23047-0.10547 0.35156-0.16406 0.12891-0.066407 0.26953-0.097657 0.39844-0.18359l20.855-13.906c0.09375-0.0625 0.13672-0.15625 0.22266-0.22656 0.19531-0.15625 0.35938-0.32031 0.51562-0.51562 0.13672-0.17188 0.26172-0.33984 0.37109-0.53125 0.097656-0.19922 0.18359-0.40234 0.25-0.625 0.074218-0.22656 0.12891-0.44531 0.14844-0.6875 0.019531-0.10547 0.074219-0.19922 0.074219-0.30859l0.38672-23.176c0-0.11719-0.046875-0.21875-0.058594-0.33203-0.011719-0.23828-0.058594-0.45703-0.12109-0.69531zm-20.883 16.711 0.4375-0.28516 11.238 7.0859-11.793 7.8633zm4.7773-3.1328 9.0742-5.9531-0.19531 11.547z"
     id="path2"
     style="fill:#3375b0;fill-opacity:1" />
</svg>
